# xmcd
#
# Track frame offsets:
# 150
# 12345
# 23895
# 32730
# 47727
# 58775
# 67577
# 72360
# 83720
# 95490
# 109880
# 121512
#
# Disc length: 1860 seconds
#
#
# Revision: 0
# Processed by: cddbd v1.5.2PL0 Copyright (c) Steve Scherf et al.
# Submitted via: FreeRIP 2.943 
#
DISCID=9307420c
DTITLE=Zezo O Principe Dos Teclados - Seresta Vol 17
DYEAR=2006
DGENRE=Seresta
TTITLE0=Tenho Ciume De Tudo
TTITLE1=Quem Eu Quero Não Me Quer
TTITLE2=Eu Vou Ter Sempre Voce
TTITLE3=Me Engana Que Eu Gosto
TTITLE4=Retrovisor
TTITLE5=Amor Clandestino
TTITLE6=Tudo Acabado
TTITLE7=Me Esqueci De Viver
TTITLE8=Serenata Suburbana
TTITLE9=Paixão De Um Homem
TTITLE10=Teu Caso Sou Eu
TTITLE11=Dormi Na Praça
EXTD=
EXTT0=
EXTT1=
EXTT2=
EXTT3=
EXTT4=
EXTT5=
EXTT6=
EXTT7=
EXTT8=
EXTT9=
EXTT10=
EXTT11=
PLAYORDER=
